<?xml version="1.0"?>
<svg xmlns="http://www.w3.org/2000/svg" xmlns:xlink="http://www.w3.org/1999/xlink" version="1.1" id="Layer_1" x="0px" y="0px" viewBox="0 0 345.004 345.004" style="enable-background:new 0 0 345.004 345.004;" xml:space="preserve" width="512px" height="512px" class=""><g><g>
	<g>
		<path d="M97.672,149.629H55.637c-7.418,0-12.364,4.945-12.364,12.364s4.945,12.364,12.364,12.364h43.272    c7.418,0,12.364-4.945,12.364-12.364C111.273,154.575,105.091,149.629,97.672,149.629z" data-original="#000000" class="active-path" data-old_color="#000000" fill="#FFFFFF"/>
	</g>
</g><g>
	<g>
		<path d="M290.546,149.629H129.818c-7.418,0-12.364,4.945-12.364,12.364s4.945,12.364,12.364,12.364h160.727    c7.418,0,12.364-4.945,12.364-12.364C302.909,154.575,297.964,149.629,290.546,149.629z" data-original="#000000" class="active-path" data-old_color="#000000" fill="#FFFFFF"/>
	</g>
</g><g>
	<g>
		<path d="M97.672,204.029H55.637c-7.418,0-12.364,4.945-12.364,12.364c0,7.418,4.945,12.364,12.364,12.364h43.272    c7.418,0,12.364-4.945,12.364-12.364C111.273,208.975,105.091,204.029,97.672,204.029z" data-original="#000000" class="active-path" data-old_color="#000000" fill="#FFFFFF"/>
	</g>
</g><g>
	<g>
		<path d="M290.546,204.029H129.818c-7.418,0-12.364,4.945-12.364,12.364c0,7.418,4.945,12.364,12.364,12.364h160.727    c7.418,0,12.364-4.945,12.364-12.364C302.909,208.975,297.964,204.029,290.546,204.029z" data-original="#000000" class="active-path" data-old_color="#000000" fill="#FFFFFF"/>
	</g>
</g><g>
	<g>
		<path d="M97.672,257.193H55.637c-7.418,0-12.364,4.945-12.364,12.364c0,7.418,4.945,12.364,12.364,12.364h43.272    c7.418,0,12.364-4.945,12.364-12.364C111.273,262.138,105.091,257.193,97.672,257.193z" data-original="#000000" class="active-path" data-old_color="#000000" fill="#FFFFFF"/>
	</g>
</g><g>
	<g>
		<path d="M290.546,257.193H129.818c-7.418,0-12.364,4.945-12.364,12.364c0,7.418,4.945,12.364,12.364,12.364h160.727    c7.418,0,12.364-4.945,12.364-12.364C302.909,262.138,297.964,257.193,290.546,257.193z" data-original="#000000" class="active-path" data-old_color="#000000" fill="#FFFFFF"/>
	</g>
</g><g>
	<g>
		<path d="M306.618,32.174h-13.6V23.52c0-7.418-4.945-12.364-12.364-12.364c-7.418,0-12.364,4.945-12.364,12.364v8.654h-39.564    V23.52c0-7.418-4.945-12.364-12.364-12.364c-7.418,0-12.364,4.945-12.364,12.364v8.654h-39.564V23.52    c0-7.418-4.945-12.364-12.364-12.364c-7.418,0-12.364,4.945-12.364,12.364v8.654H89.018V23.52c0-7.418-4.945-12.364-12.364-12.364    S64.291,16.102,64.291,23.52v8.654H39.564C18.546,32.174,0,50.72,0,71.739v222.545c0,22.255,18.546,39.564,39.564,39.564h265.818    c22.255,0,39.564-18.546,39.564-39.564V71.738C346.182,50.72,327.637,32.174,306.618,32.174z M321.455,96.465h-19.782    c-7.418,0-12.364,4.945-12.364,12.364c0,7.418,4.945,12.364,12.364,12.364h19.782V295.52c0,8.655-7.418,14.836-14.836,14.836    H39.564c-8.654,0-14.836-7.418-14.836-14.836V121.193H258.4c7.418,0,12.364-4.945,12.364-12.364    c0-7.418-4.945-12.364-12.364-12.364H24.727V71.739c0-8.654,7.418-14.836,14.836-14.836h24.727v8.654    c0,7.418,4.945,12.364,12.364,12.364s12.364-4.945,12.364-12.364v-8.655h50.691v8.655c0,7.418,4.945,12.364,12.364,12.364    c7.418,0,12.364-4.945,12.364-12.364v-8.655H204v8.655c0,7.418,4.945,12.364,12.364,12.364c7.418,0,12.364-4.945,12.364-12.364    v-8.655h39.564v8.655c0,7.418,4.945,12.364,12.364,12.364s12.364-4.945,12.364-12.364v-8.655h13.6    c8.655,0,14.836,7.418,14.836,14.836V96.465z" data-original="#000000" class="active-path" data-old_color="#000000" fill="#FFFFFF"/>
	</g>
</g></g> </svg>
